<?xml version="1.0" encoding="UTF-8" standalone="no"?>
<!-- Created with Inkscape (http://www.inkscape.org/) -->

<svg
   xmlns:dc="http://purl.org/dc/elements/1.1/"
   xmlns:cc="http://creativecommons.org/ns#"
   xmlns:rdf="http://www.w3.org/1999/02/22-rdf-syntax-ns#"
   xmlns:svg="http://www.w3.org/2000/svg"
   xmlns="http://www.w3.org/2000/svg"
   xmlns:sodipodi="http://sodipodi.sourceforge.net/DTD/sodipodi-0.dtd"
   xmlns:inkscape="http://www.inkscape.org/namespaces/inkscape"
   width="6.6758161mm"
   height="8.4666672mm"
   viewBox="0 0 6.6758161 8.4666672"
   version="1.1"
   id="svg8"
   inkscape:version="0.92.4 (5da689c313, 2019-01-14)"
   sodipodi:docname="pacote.svg"
   inkscape:export-filename="C:\Users\mscma\Documents\GitHub\Hackathon-CCR\src\assets\img\pacote.png"
   inkscape:export-xdpi="383.99997"
   inkscape:export-ydpi="383.99997">
  <defs
     id="defs2">
    <clipPath
       clipPathUnits="userSpaceOnUse"
       id="clipPath864">
      <rect
         style="fill:none;fill-opacity:1;stroke:none;stroke-width:0.26499999;stroke-linecap:round;stroke-miterlimit:4;stroke-dasharray:none;stroke-opacity:1"
         id="rect866"
         width="353.17407"
         height="335.4176"
         x="106.44498"
         y="-426.97714" />
    </clipPath>
    <clipPath
       clipPathUnits="userSpaceOnUse"
       id="clipPath1161">
      <rect
         style="fill:#218080;fill-opacity:1;stroke:none;stroke-width:0.26499999;stroke-linecap:round;stroke-miterlimit:4;stroke-dasharray:none;stroke-opacity:1"
         id="rect1163"
         width="47.058216"
         height="42.781879"
         x="-161.27492"
         y="-363.6123" />
    </clipPath>
  </defs>
  <sodipodi:namedview
     id="base"
     pagecolor="#ffffff"
     bordercolor="#666666"
     borderopacity="1.0"
     inkscape:pageopacity="0.0"
     inkscape:pageshadow="2"
     inkscape:zoom="7.9195959"
     inkscape:cx="-38.079218"
     inkscape:cy="17.855506"
     inkscape:document-units="mm"
     inkscape:current-layer="layer1"
     showgrid="false"
     inkscape:window-width="1366"
     inkscape:window-height="715"
     inkscape:window-x="-8"
     inkscape:window-y="22"
     inkscape:window-maximized="1"
     fit-margin-top="0"
     fit-margin-left="0"
     fit-margin-right="0"
     fit-margin-bottom="0"
     inkscape:pagecheckerboard="true" />
  <metadata
     id="metadata5">
    <rdf:RDF>
      <cc:Work
         rdf:about="">
        <dc:format>image/svg+xml</dc:format>
        <dc:type
           rdf:resource="http://purl.org/dc/dcmitype/StillImage" />
        <dc:title />
      </cc:Work>
    </rdf:RDF>
  </metadata>
  <g
     inkscape:label="Camada 1"
     inkscape:groupmode="layer"
     id="layer1"
     transform="translate(-1.3744309,-285.45261)">
    <g
       id="g1433"
       transform="matrix(0.06253291,0,0,0.06253291,-1.7166401,279.8117)"
       inkscape:export-xdpi="96"
       inkscape:export-ydpi="96">
      <path
         style="fill:#ffa64c;fill-opacity:1;stroke:none;stroke-width:0.26499999;stroke-miterlimit:4;stroke-dasharray:none;stroke-opacity:1"
         d="M 99.44045,225.16223 C 97.37363,224.57109 96.4234,223.91122 92.40652,220.27766 80.61895,209.61496 69.02489,195.636 61.87922,183.47089 48.2929,160.34095 45.82113,139.37379 54.49781,120.85682 c 7.7116,-16.45739 23.953,-28.276129 41.57832,-30.256219 11.2062,-1.25894 21.41621,0.50041 30.82345,5.31138 12.71154,6.500819 21.97563,17.282569 26.5832,30.938079 7.92494,23.48721 -1.65293,51.50287 -27.54339,80.56562 -5.45432,6.12262 -14.38116,14.78682 -17.11056,16.60714 -2.30994,1.54058 -6.29485,2.0242 -9.38838,1.13941 z"
         id="path838-5-1"
         inkscape:connector-curvature="0"
         sodipodi:nodetypes="cssssssscc" />
      <circle
         style="fill:#ffffff;fill-opacity:1;stroke:none;stroke-width:0.2444748;stroke-linecap:round;stroke-miterlimit:4;stroke-dasharray:none;stroke-opacity:1"
         id="path844-6-3"
         cx="102.80952"
         cy="143.75359"
         r="40" />
      <path
         style="fill:#ffa64c;fill-opacity:1;stroke-width:0.27100095"
         d="M 91.696569,166.04981 C 85.7356,162.912 80.645029,160.09363 80.38419,159.78676 c -0.416015,-0.4894 -0.474249,-1.20018 -0.474249,-5.78825 v -5.23034 l -2.64226,-1.40628 c -3.109057,-1.65473 -3.590767,-2.03963 -3.590767,-2.86928 0,-0.37969 1.103582,-2.0083 2.845515,-4.19928 1.565028,-1.96847 2.845507,-3.68223 2.845507,-3.80833 0,-0.1261 -1.280479,-1.83842 -2.845507,-3.80517 -1.625386,-2.04258 -2.845515,-3.82611 -2.845515,-4.15947 0,-0.32096 0.222662,-0.78508 0.494797,-1.03136 0.662373,-0.59943 21.424853,-11.57323 21.973908,-11.61409 1.07997,-0.0803 1.465486,0.25474 3.959251,3.44135 1.45805,1.86312 2.6771,3.38751 2.709,3.38751 0.0318,0 1.24877,-1.51429 2.70416,-3.36508 1.45538,-1.8508 2.90475,-3.43548 3.22083,-3.52154 0.64145,-0.17463 0.039,-0.46751 12.63422,6.1421 4.84415,2.54207 9.20387,4.91427 9.68829,5.27153 0.55678,0.41066 0.88075,0.88237 0.88075,1.28244 0,0.39617 -1.06422,1.96878 -2.8455,4.20485 -1.56504,1.96459 -2.84553,3.66743 -2.84553,3.7841 0,0.11667 1.28049,1.82269 2.84553,3.79116 1.74192,2.19098 2.8455,3.81959 2.8455,4.19928 0,0.82965 -0.48171,1.21455 -3.59076,2.86928 l -2.64225,1.40628 v 5.23034 c 0,4.58888 -0.0582,5.2985 -0.47427,5.78612 -0.45275,0.53057 -21.89753,11.97031 -22.43942,11.97031 -0.1434,0 -5.137885,-2.5673 -11.098851,-5.70513 z m 9.500551,-5.42784 c 0.01,-3.49063 -0.0542,-6.70643 -0.14192,-7.14625 -0.15773,-0.79106 -0.17768,-0.77609 -1.85662,1.39423 -0.93345,1.20664 -1.964577,2.26382 -2.291386,2.34928 -0.631626,0.16517 -1.632333,-0.3067 -9.193396,-4.33505 -2.340626,-1.24702 -4.32232,-2.26731 -4.403765,-2.26731 -0.08145,0 -0.148083,1.63312 -0.148083,3.62917 v 3.62917 l 8.739777,4.62774 c 4.806886,2.54526 8.860843,4.59126 9.008813,4.54668 0.16742,-0.0504 0.27566,-2.47819 0.28658,-6.42766 z m 12.48205,1.89503 8.77791,-4.63093 v -3.6346 c 0,-1.99904 -0.0551,-3.6346 -0.12243,-3.6346 -0.0674,0 -2.90027,1.46981 -6.29538,3.26625 -3.39512,1.79645 -6.35829,3.27917 -6.58483,3.29495 -1.0431,0.0727 -1.39819,-0.19356 -2.97262,-2.22878 -0.92395,-1.19439 -1.76761,-2.11742 -1.87478,-2.05118 -0.10717,0.0663 -0.1758,3.08612 -0.15253,6.71087 0.0476,7.40321 0.0526,7.53894 0.28163,7.53894 0.0908,0 4.11518,-2.08392 8.94303,-4.63092 z M 98.31764,150.76078 c 1.0489,-1.33683 1.81794,-2.51418 1.70898,-2.61635 -0.28495,-0.26717 -17.711993,-9.45161 -17.933981,-9.45161 -0.329093,0 -4.118296,4.89776 -4.019197,5.19505 0.141375,0.42414 17.913792,9.73046 18.142281,9.49999 0.107145,-0.10807 1.053007,-1.29025 2.101917,-2.62708 z m 25.08795,-4.44479 c 2.65265,-1.40937 4.05285,-2.30305 4.03,-2.57219 -0.0368,-0.43339 -3.58631,-5.05098 -3.88266,-5.05098 -0.20385,0 -17.67644,9.19459 -17.95214,9.44695 -0.10436,0.0955 0.73549,1.36269 1.86635,2.81593 l 2.05609,2.64226 4.90867,-2.56111 c 2.69977,-1.40861 6.73794,-3.53299 8.97369,-4.72086 z m -11.74821,-5.11641 c 4.74361,-2.4966 8.62632,-4.60655 8.62822,-4.68879 0.007,-0.27607 -17.31235,-9.24544 -17.67608,-9.15442 -0.61155,0.15303 -17.279845,8.97735 -17.274923,9.14549 0.0055,0.184 17.081693,9.21344 17.450973,9.22755 0.13587,0.006 4.12819,-2.03323 8.87181,-4.52983 z M 91.202081,129.59225 c 6.020974,-3.17416 8.973969,-4.87026 8.846789,-5.08126 -0.49197,-0.81626 -3.941659,-5.05752 -4.102941,-5.0444 -0.100338,0.009 -4.145821,2.12489 -8.989964,4.70385 -5.595712,2.97907 -8.797043,4.83195 -8.778755,5.081 0.02775,0.37807 3.602167,5.10537 3.860279,5.10537 0.06984,0 4.193867,-2.14405 9.164592,-4.76456 z m 34.358669,2.40787 c 1.01877,-1.29618 1.86525,-2.5281 1.88108,-2.7376 0.0178,-0.23478 -3.29812,-2.14992 -8.64326,-4.99209 -4.76961,-2.53615 -8.80938,-4.66513 -8.97724,-4.73106 -0.28344,-0.11131 -4.06879,4.40998 -4.22957,5.05189 -0.058,0.23154 17.42553,9.72701 17.96525,9.7571 0.0833,0.005 0.98497,-1.05207 2.00374,-2.34824 z"
         id="path1383"
         inkscape:connector-curvature="0" />
    </g>
  </g>
</svg>
