<?xml version="1.0" encoding="UTF-8" standalone="no"?>
<!-- Created with Inkscape (http://www.inkscape.org/) -->

<svg
   xmlns:dc="http://purl.org/dc/elements/1.1/"
   xmlns:cc="http://creativecommons.org/ns#"
   xmlns:rdf="http://www.w3.org/1999/02/22-rdf-syntax-ns#"
   xmlns:svg="http://www.w3.org/2000/svg"
   xmlns="http://www.w3.org/2000/svg"
   xmlns:sodipodi="http://sodipodi.sourceforge.net/DTD/sodipodi-0.dtd"
   xmlns:inkscape="http://www.inkscape.org/namespaces/inkscape"
   width="6.6758161mm"
   height="8.4666672mm"
   viewBox="0 0 6.6758161 8.4666672"
   version="1.1"
   id="svg8"
   inkscape:version="0.92.4 (5da689c313, 2019-01-14)"
   sodipodi:docname="pedagio.svg"
   inkscape:export-filename="C:\Users\mscma\Documents\GitHub\Hackathon-CCR\src\assets\img\pedagio.png"
   inkscape:export-xdpi="383.99997"
   inkscape:export-ydpi="383.99997">
  <defs
     id="defs2">
    <clipPath
       clipPathUnits="userSpaceOnUse"
       id="clipPath864">
      <rect
         style="fill:none;fill-opacity:1;stroke:none;stroke-width:0.26499999;stroke-linecap:round;stroke-miterlimit:4;stroke-dasharray:none;stroke-opacity:1"
         id="rect866"
         width="353.17407"
         height="335.4176"
         x="106.44498"
         y="-426.97714" />
    </clipPath>
    <clipPath
       clipPathUnits="userSpaceOnUse"
       id="clipPath1161">
      <rect
         style="fill:#218080;fill-opacity:1;stroke:none;stroke-width:0.26499999;stroke-linecap:round;stroke-miterlimit:4;stroke-dasharray:none;stroke-opacity:1"
         id="rect1163"
         width="47.058216"
         height="42.781879"
         x="-161.27492"
         y="-363.6123" />
    </clipPath>
  </defs>
  <sodipodi:namedview
     id="base"
     pagecolor="#ffffff"
     bordercolor="#666666"
     borderopacity="1.0"
     inkscape:pageopacity="0.0"
     inkscape:pageshadow="2"
     inkscape:zoom="5.6"
     inkscape:cx="-71.142583"
     inkscape:cy="10.557107"
     inkscape:document-units="mm"
     inkscape:current-layer="layer1"
     showgrid="false"
     inkscape:window-width="1366"
     inkscape:window-height="715"
     inkscape:window-x="-8"
     inkscape:window-y="22"
     inkscape:window-maximized="1"
     fit-margin-top="0"
     fit-margin-left="0"
     fit-margin-right="0"
     fit-margin-bottom="0"
     inkscape:pagecheckerboard="true" />
  <metadata
     id="metadata5">
    <rdf:RDF>
      <cc:Work
         rdf:about="">
        <dc:format>image/svg+xml</dc:format>
        <dc:type
           rdf:resource="http://purl.org/dc/dcmitype/StillImage" />
        <dc:title />
      </cc:Work>
    </rdf:RDF>
  </metadata>
  <g
     inkscape:label="Camada 1"
     inkscape:groupmode="layer"
     id="layer1"
     transform="translate(-24.284415,-285.89573)">
    <g
       id="g1233"
       transform="matrix(0.06253291,0,0,0.06253291,6.729453,277.44464)"
       inkscape:export-xdpi="96"
       inkscape:export-ydpi="96">
      <path
         style="fill:#11113f;fill-opacity:1;stroke:none;stroke-width:0.26499999;stroke-miterlimit:4;stroke-dasharray:none;stroke-opacity:1"
         d="m 330.74091,270.1015 c -2.06682,-0.59114 -3.01705,-1.25101 -7.03393,-4.88457 -11.78757,-10.6627 -23.38163,-24.64166 -30.5273,-36.80677 -13.58632,-23.12994 -16.05809,-44.0971 -7.38141,-62.61407 7.7116,-16.45739 23.95301,-28.27613 41.57832,-30.25622 11.2062,-1.25894 21.41621,0.50041 30.82345,5.31138 12.71154,6.50082 21.97563,17.28257 26.5832,30.93808 7.92494,23.48721 -1.65293,51.50287 -27.54339,80.56562 -5.45432,6.12262 -14.38116,14.78682 -17.11056,16.60714 -2.30994,1.54058 -6.29485,2.0242 -9.38838,1.13941 z"
         id="path838"
         inkscape:connector-curvature="0"
         sodipodi:nodetypes="cssssssscc" />
      <circle
         style="fill:#ffffff;fill-opacity:1;stroke:none;stroke-width:0.2444748;stroke-linecap:round;stroke-miterlimit:4;stroke-dasharray:none;stroke-opacity:1"
         id="path844"
         cx="334.10999"
         cy="188.69286"
         r="40" />
      <path
         style="fill:#11113f;fill-opacity:1;stroke-width:0.04916511"
         d="m 306.85293,215.79789 c -0.013,-0.0338 -0.0178,-1.11242 -0.0108,-2.39686 l 0.0128,-2.33534 2.43367,-0.0247 2.43368,-0.0247 0.0246,-20.35436 0.0246,-20.35436 7.30102,-4.38597 c 4.01556,-2.4123 7.3342,-4.38598 7.37476,-4.38598 0.0405,0 3.35922,1.97368 7.37478,4.38598 l 7.30102,4.38597 0.0124,10.73029 c 0.0117,10.17679 0.0168,10.73025 0.0983,10.72971 0.0473,-2.9e-4 0.5837,-0.31901 1.19209,-0.70821 0.60839,-0.38923 1.12278,-0.6974 1.14309,-0.68485 0.0477,0.0295 0.047,5.53033 -6.9e-4,5.6033 -0.0199,0.0304 -0.53392,0.37075 -1.14234,0.7564 -0.60842,0.38566 -1.14502,0.7349 -1.19243,0.77608 -0.0815,0.0707 -0.0855,0.44183 -0.0738,6.79046 l 0.0125,6.71554 2.43368,0.0247 2.43367,0.0247 v 2.3845 2.38452 l -19.58154,0.0123 c -15.63937,0.009 -19.58627,-5e-5 -19.6051,-0.0492 z m 29.4643,-23.75399 c 0.009,-14.33289 -0.002,-18.98943 -0.0447,-19.04132 -0.10587,-0.12756 -9.71752,-5.86594 -9.82531,-5.86594 -0.0956,0 -9.33277,5.49757 -9.7224,5.78637 l -0.15979,0.11845 v 18.96704 c 0,10.43188 0.0148,18.98186 0.0329,18.99994 0.0181,0.018 4.45955,0.0274 9.86989,0.0204 l 9.83701,-0.0123 z m -17.17278,6.5463 c -0.0129,-0.0339 -0.0177,-4.98427 -0.0108,-11.00086 l 0.0126,-10.93924 h 7.30102 7.30102 v 10.98841 10.9884 l -7.29021,0.0126 c -5.80632,0.009 -7.29497,-1e-4 -7.31363,-0.0492 z m 9.78565,-10.95169 v -6.17022 h -2.48284 -2.48284 l -0.0126,6.12105 c -0.007,3.36658 -0.002,6.14892 0.011,6.18297 0.0186,0.0489 0.54412,0.0592 2.49549,0.0492 l 2.47191,-0.0128 z m 17.26101,6.64954 c -0.0157,-0.0158 -0.0286,-1.2844 -0.0286,-2.8192 v -2.79056 l 2.36138,-1.50319 c 1.29876,-0.82677 2.38303,-1.5032 2.40949,-1.5032 0.0309,0 0.0436,1.00349 0.0354,2.8147 l -0.0127,2.81471 -1.79452,1.14388 c -2.86316,1.82506 -2.94035,1.87294 -2.97044,1.84286 z m 7.34614,-7.47932 c 0,-2.39077 0.0104,-2.80504 0.0717,-2.85593 0.19472,-0.16161 4.67773,-2.98641 4.70958,-2.96757 0.0477,0.0282 0.047,5.52937 -7.4e-4,5.6022 -0.0444,0.0678 -4.67399,3.01768 -4.73603,3.01768 -0.0261,0 -0.0445,-1.15885 -0.0445,-2.79638 z m 7.40732,-1.9073 c -0.0448,-0.0448 -0.0399,-5.53378 0.005,-5.60247 0.0199,-0.0304 0.80812,-0.54633 1.75166,-1.14659 1.4003,-0.89081 1.72668,-1.07941 1.77622,-1.02641 0.11668,0.12486 2.48181,3.87905 2.48114,3.93833 -4.9e-4,0.033 -1.28695,0.87844 -2.85908,1.87895 -1.57212,1.00052 -2.91781,1.85772 -2.99042,1.90492 -0.0727,0.0472 -0.14668,0.0712 -0.16458,0.0532 z"
         id="path1084"
         inkscape:connector-curvature="0" />
    </g>
  </g>
</svg>
