<?xml version="1.0" encoding="UTF-8" standalone="no"?>
<!-- Created with Inkscape (http://www.inkscape.org/) -->

<svg
   xmlns:dc="http://purl.org/dc/elements/1.1/"
   xmlns:cc="http://creativecommons.org/ns#"
   xmlns:rdf="http://www.w3.org/1999/02/22-rdf-syntax-ns#"
   xmlns:svg="http://www.w3.org/2000/svg"
   xmlns="http://www.w3.org/2000/svg"
   xmlns:sodipodi="http://sodipodi.sourceforge.net/DTD/sodipodi-0.dtd"
   xmlns:inkscape="http://www.inkscape.org/namespaces/inkscape"
   width="6.6758161mm"
   height="8.4666672mm"
   viewBox="0 0 6.6758161 8.4666672"
   version="1.1"
   id="svg8"
   inkscape:version="0.92.4 (5da689c313, 2019-01-14)"
   sodipodi:docname="saude.svg"
   inkscape:export-filename="C:\Users\mscma\Documents\GitHub\Hackathon-CCR\src\assets\img\saude.png"
   inkscape:export-xdpi="383.99997"
   inkscape:export-ydpi="383.99997">
  <defs
     id="defs2">
    <clipPath
       clipPathUnits="userSpaceOnUse"
       id="clipPath864">
      <rect
         style="fill:none;fill-opacity:1;stroke:none;stroke-width:0.26499999;stroke-linecap:round;stroke-miterlimit:4;stroke-dasharray:none;stroke-opacity:1"
         id="rect866"
         width="353.17407"
         height="335.4176"
         x="106.44498"
         y="-426.97714" />
    </clipPath>
    <clipPath
       clipPathUnits="userSpaceOnUse"
       id="clipPath1161">
      <rect
         style="fill:#218080;fill-opacity:1;stroke:none;stroke-width:0.26499999;stroke-linecap:round;stroke-miterlimit:4;stroke-dasharray:none;stroke-opacity:1"
         id="rect1163"
         width="47.058216"
         height="42.781879"
         x="-161.27492"
         y="-363.6123" />
    </clipPath>
  </defs>
  <sodipodi:namedview
     id="base"
     pagecolor="#ffffff"
     bordercolor="#666666"
     borderopacity="1.0"
     inkscape:pageopacity="0.0"
     inkscape:pageshadow="2"
     inkscape:zoom="7.9195959"
     inkscape:cx="-33.969038"
     inkscape:cy="3.5545072"
     inkscape:document-units="mm"
     inkscape:current-layer="layer1"
     showgrid="false"
     inkscape:window-width="1366"
     inkscape:window-height="715"
     inkscape:window-x="-8"
     inkscape:window-y="22"
     inkscape:window-maximized="1"
     fit-margin-top="0"
     fit-margin-left="0"
     fit-margin-right="0"
     fit-margin-bottom="0"
     showguides="true"
     inkscape:guide-bbox="true"
     inkscape:pagecheckerboard="true" />
  <metadata
     id="metadata5">
    <rdf:RDF>
      <cc:Work
         rdf:about="">
        <dc:format>image/svg+xml</dc:format>
        <dc:type
           rdf:resource="http://purl.org/dc/dcmitype/StillImage" />
        <dc:title />
      </cc:Work>
    </rdf:RDF>
  </metadata>
  <g
     inkscape:label="Camada 1"
     inkscape:groupmode="layer"
     id="layer1"
     transform="translate(-8.999587,-285.34891)">
    <g
       id="g1240"
       transform="matrix(0.06253291,0,0,0.06253291,5.4357972,279.61346)"
       inkscape:export-xdpi="96"
       inkscape:export-ydpi="96">
      <path
         sodipodi:nodetypes="cssssssscc"
         inkscape:connector-curvature="0"
         id="path838-8"
         d="m 106.99997,226.67414 c -2.06682,-0.59114 -3.01705,-1.25101 -7.03393,-4.88457 -11.78757,-10.6627 -23.38163,-24.64166 -30.5273,-36.80677 -13.58632,-23.12994 -16.05809,-44.0971 -7.38141,-62.61407 7.7116,-16.45739 23.95301,-28.276133 41.57832,-30.256223 11.2062,-1.25894 21.41621,0.50041 30.82345,5.31138 12.71154,6.500823 21.97563,17.282573 26.5832,30.938083 7.92494,23.48721 -1.65293,51.50287 -27.54339,80.56562 -5.45432,6.12262 -14.38116,14.78682 -17.11056,16.60714 -2.30994,1.54058 -6.29485,2.0242 -9.38838,1.13941 z"
         style="fill:#ee3840;fill-opacity:1;stroke:none;stroke-width:0.26499999;stroke-miterlimit:4;stroke-dasharray:none;stroke-opacity:1" />
      <circle
         r="40"
         cy="145.2655"
         cx="110.36904"
         id="path844-3"
         style="fill:#ffffff;fill-opacity:1;stroke:none;stroke-width:0.2444748;stroke-linecap:round;stroke-miterlimit:4;stroke-dasharray:none;stroke-opacity:1" />
      <g
         id="g1130"
         transform="translate(121.18448,498.64698)"
         style="fill:#ee3840;fill-opacity:1">
        <g
           id="g1165"
           transform="translate(19.066505,-43.458763)"
           style="fill:#ee3840;fill-opacity:1">
          <path
             style="fill:#ee3840;fill-opacity:1;stroke-width:0.4946534"
             d="m -43.738756,-288.30973 c -2.079983,-0.70194 -3.97437,-3.33545 -3.97437,-5.52502 0,-2.2376 1.894569,-4.82535 4.054098,-5.53737 3.715413,-1.22503 7.268848,1.04616 7.64804,4.88825 0.442522,4.48385 -3.471131,7.61067 -7.727768,6.17414 z m 3.658178,-4.38911 c 0.651104,-0.92959 0.664563,-1.23903 0.09143,-2.10228 -0.369651,-0.55673 -1.174297,-1.01224 -1.788065,-1.01224 -0.613787,0 -1.418413,0.45551 -1.788083,1.01224 -0.573189,0.86325 -0.559728,1.17269 0.09143,2.10228 0.419917,0.59951 1.183437,1.09003 1.696708,1.09003 0.513251,0 1.276771,-0.49052 1.696689,-1.09003 z m 25.179225,4.45686 c -3.714125,-0.96243 -5.42257,-6.03173 -3.049507,-9.04856 4.239386,-5.38953 12.4508004,-1.06842 10.3079777,5.42437 -0.9550479,2.89382 -4.0716747,4.44998 -7.2584707,3.62419 z m 3.199004,-3.9604 c 0.820009,-0.82003 0.743783,-2.62321 -0.142041,-3.35832 -0.990966,-0.82242 -3.080745,-0.23929 -3.463439,0.96644 -0.697324,2.1971 2.006441,3.99082 3.605408,2.39188 z m -42.431406,-0.27284 c -0.946776,-0.47569 -2.226686,-1.62123 -2.844246,-2.54564 -0.969235,-1.45083 -1.122831,-2.31919 -1.122831,-6.3475 0,-4.5976 0.045,-4.77416 3.035194,-11.91862 1.669353,-3.98855 3.371866,-7.76572 3.783349,-8.39373 1.018522,-1.55445 3.138233,-2.5708 6.091069,-2.92052 2.72343,-0.32254 3.908592,-1.42498 3.908592,-3.63577 0,-1.64675 1.897181,-3.43873 3.640601,-3.43873 1.722958,0 3.779212,2.02402 3.779212,3.71993 0,0.7104 0.230423,1.72219 0.512055,2.24842 0.485153,0.90653 1.157516,0.95679 12.799154,0.95679 6.7579,0 12.9906467,0.14077 13.8505472,0.31269 2.623022,0.52461 4.2542788,2.54015 5.77297397,7.13293 1.21039557,3.66042 1.40647727,5.11435 1.58078987,11.72166 0.1808623,6.85392 0.1055787,7.736 -0.8242,9.65656 -1.06407284,2.19807 -3.16997904,3.82329 -4.95408924,3.82329 -1.5750936,0 -1.4405446,-2.93297 0.1999829,-4.35941 0.879547,-0.76476 1.2366446,-1.5761 1.2366446,-2.8098 v -1.73455 H -13.719293 c -8.277646,0 -10.222427,-0.1346 -11.129712,-0.77003 -1.294403,-0.90664 -1.396771,-1.82981 -0.32205,-2.90454 0.657125,-0.65712 2.377979,-0.7773 11.129693,-0.7773 h 10.3524053 l -0.031021,-3.58624 c -0.022319,-2.58101 -0.4036286,-4.62615 -1.3602906,-7.29615 l -1.3292887,-3.7099 -20.055123,-0.12915 c -15.539328,-0.10002 -20.238759,0.0109 -20.870777,0.49465 -0.448617,0.34308 -2.163992,3.87947 -3.811921,7.85867 -2.599674,6.27737 -2.996228,7.65399 -2.996228,10.40133 0,3.75151 0.871329,5.36515 2.897035,5.36515 1.621552,0 2.544147,0.80722 2.544147,2.22594 0,2.289 -2.390387,2.88735 -5.431332,1.35954 z m 17.303012,-35.49062 c 0,-0.40808 -0.333897,-0.74198 -0.741987,-0.74198 -0.408073,0 -0.741968,0.3339 -0.741968,0.74198 0,0.4081 0.333895,0.74199 0.741968,0.74199 0.40809,0 0.741987,-0.33389 0.741987,-0.74199 z m 2.572191,35.76346 c -0.326458,-0.32648 -0.593578,-1.06105 -0.593578,-1.63237 0,-1.9667 0.873561,-2.22595 7.501337,-2.22595 5.736366,0 6.361001,0.0877 6.826217,0.95679 0.695674,1.29989 0.646241,1.80627 -0.26527,2.7178 -0.621896,0.62187 -1.98674,0.7773 -6.826216,0.7773 -4.045155,0 -6.245537,-0.19662 -6.64249,-0.59357 z M -49.5928,-307.04199 c -0.326477,-0.32648 -0.593579,-0.97454 -0.593579,-1.44013 0,-1.34146 3.420121,-9.03108 4.320638,-9.71431 1.177197,-0.89314 5.332157,-0.78792 6.279077,0.15891 0.980318,0.98032 1.131811,10.04733 0.183729,10.99544 -0.374713,0.3747 -2.253425,0.59357 -5.094932,0.59357 -2.841507,0 -4.720221,-0.21887 -5.094933,-0.59357 z m 34.292916,-0.51938 c -0.111565,-0.34009 -0.274231,-1.06179 -0.361506,-1.60381 -0.105219,-0.65416 -0.655583,-1.07074 -1.63659,-1.23901 -1.334206,-0.22886 -1.492608,-0.45564 -1.62899,-2.33218 -0.144036,-1.98243 -0.07528,-2.09826 1.483974,-2.50224 1.285443,-0.33301 1.688945,-0.73414 1.887202,-1.87619 0.229552,-1.32224 0.42937,-1.45263 2.225942,-1.45263 1.778578,0 2.018343,0.15111 2.424583,1.52781 0.325007,1.10143 0.877171,1.6536 1.978614,1.97861 2.5656234,0.75707 2.3122179,4.36205 -0.3338424,4.74933 -0.7100043,0.10391 -1.1814056,0.67166 -1.4621856,1.76098 -0.3807,1.47698 -0.575293,1.60765 -2.394361,1.60765 -1.14605,0 -2.065433,-0.26043 -2.18284,-0.61832 z m -35.144635,-20.3621 c -0.791366,-0.58748 -0.871402,-0.89749 -0.418522,-1.621 0.442249,-0.70657 1.153035,-0.88198 3.381408,-0.83446 3.227231,0.0687 5.08334,1.18618 3.412464,2.05426 -1.828754,0.95009 -5.338433,1.17095 -6.37535,0.4012 z m 22.764856,0.45375 c -0.272054,-0.0923 -1.343257,-0.30999 -2.380429,-0.48381 -1.394194,-0.23364 -1.844844,-0.5287 -1.728689,-1.13178 0.183636,-0.95356 1.789842,-1.48274 4.710043,-1.55182 1.589424,-0.0376 2.206966,0.17887 2.598659,0.91074 0.739574,1.38189 -1.377089,2.87477 -3.199584,2.25667 z m -18.057553,-5.8307 c -2.424073,-1.28189 -3.263095,-2.32671 -2.812119,-3.50193 0.5165,-1.346 2.243774,-0.91624 4.399549,1.09465 1.398749,1.30475 1.942441,2.16089 1.727656,2.72061 -0.409795,1.0679 -0.767002,1.03412 -3.315086,-0.31333 z m 12.587853,0.58924 c -0.493007,-0.79772 3.733971,-4.90039 5.048856,-4.90039 2.685988,0 1.958677,2.37753 -1.263838,4.13145 -2.653317,1.44412 -3.288037,1.57306 -3.785018,0.76894 z"
             id="path1175"
             inkscape:connector-curvature="0"
             sodipodi:nodetypes="cscccccsccscccccccccccccscccssscsccccscscscsscccccccsssccssssscssccsccscccsccccccccscccssccccccccccccccccccscc" />
        </g>
      </g>
    </g>
  </g>
</svg>
