<svg id="Capa_1" enable-background="new 0 0 509.5 509.5" height="512" viewBox="0 0 509.5 509.5" width="512" xmlns="http://www.w3.org/2000/svg"><g><g><path d="m354.459 321.616c57.723 0 104.519 46.796 104.519 104.519v62.657c0 7.288-5.919 13.207-13.207 13.207h-382.041c-7.288 0-13.207-5.919-13.207-13.207v-62.657c0-57.723 46.796-104.519 104.519-104.519z" fill="#a6e7f0"/><path d="m344.718 323.731c-94.564 46.578-91.445 53.089-187.092.166-1.707-.945-1.742-3.393-.057-4.377l30.687-17.914c6.618-3.309 10.796-10.07 10.796-17.458v-45.865l107.12.605v45.26c0 7.388 4.178 14.149 10.796 17.458l27.992 17.742c1.658 1.051 1.519 3.515-.242 4.383z" fill="#ffdecf"/><path d="m75.52 426.14v62.65c0 7.29 5.92 13.21 13.21 13.21h-25c-7.29 0-13.21-5.92-13.21-13.21v-62.65c0-57.73 46.8-104.52 104.52-104.52h25c-57.72 0-104.52 46.79-104.52 104.52z" fill="#6bd9e7"/><path d="m261.74 359.97c-27.54 5.19-50.33-6.25-107.99-38.22l34.51-20.14c6.61-3.31 10.79-10.07 10.79-17.46v-45.87l25 .14v45.73c0 7.39-4.18 14.15-10.79 17.46l-24.88 14.52c-4.25 2.48-4.17 8.65.14 11.02 34.19 18.83 55.18 29.43 73.22 32.82z" fill="#ffcdbe"/><g fill="#ffdecf"><path d="m271.025 248.012h-39.175c-39.853 0-72.16-32.307-72.16-72.16v-68.83h183.494v68.83c.001 39.853-32.306 72.16-72.159 72.16z"/><path d="m159.686 121.536c-17.365.114-31.412 14.234-31.412 31.619 0 17.458 14.161 31.619 31.619 31.619z"/><path d="m343.387 184.774c17.458 0 31.619-14.161 31.619-31.619s-14.161-31.619-31.619-31.619z"/></g><path d="m256.85 248.01h-25c-39.85 0-72.16-32.31-72.16-72.16v-68.83h25v68.83c0 39.85 32.31 72.16 72.16 72.16z" fill="#ffcdbe"/><path d="m295.823 7.5h-88.77c-26.157 0-47.362 21.205-47.362 47.362v52.16h183.494v-52.16c0-26.157-21.205-47.362-47.362-47.362z" fill="#a6e7f0"/><path d="m232.05 7.5c-26.15 0-47.36 21.2-47.36 47.36v52.16h-25v-52.16c0-26.16 21.21-47.36 47.36-47.36z" fill="#6bd9e7"/></g><path d="m384.692 318.269c-.322-.11-19.065-3.991-28.6-4.128l-42.56-21.284c-3.496-1.745-5.667-5.256-5.667-9.162v-37.241c20.784-10.866 36.311-30.654 41.184-54.599 18.898-2.75 33.461-19.056 33.461-38.705 0-19.074-13.732-34.993-31.83-38.419v-18.481c0-4.143-3.358-7.5-7.5-7.5s-7.5 3.357-7.5 7.5v3.27h-168.49v-44.66c0-21.979 17.881-39.86 39.86-39.86h88.77c21.979 0 39.86 17.881 39.86 39.86v7.39c0 4.143 3.358 7.5 7.5 7.5s7.5-3.357 7.5-7.5v-7.39c0-30.25-24.61-54.86-54.86-54.86h-88.77c-30.25 0-54.86 24.61-54.86 54.86v59.952c-17.88 3.6-31.42 19.457-31.42 38.338 0 19.501 14.345 35.712 33.036 38.644 4.806 23.52 20.199 43.868 41.614 54.904v36.993c0 3.907-2.174 7.422-5.673 9.171l-43.175 21.577c-10.353.778-30.417 6.619-30.756 6.775-42.479 15.931-72.796 56.952-72.796 104.926v62.65c0 11.42 9.291 20.71 20.71 20.71h32.02c4.142 0 7.5-3.357 7.5-7.5s-3.358-7.5-7.5-7.5h-32.02c-3.148 0-5.71-2.562-5.71-5.71v-62.65c0-37.827 21.763-70.663 53.424-86.656v61.714h-3.617c-15.155 0-27.484 12.329-27.484 27.483v24.947c0 9.085 7.392 16.477 16.478 16.477h6.573c4.142 0 7.5-3.357 7.5-7.5s-3.358-7.5-7.5-7.5h-6.573c-.815 0-1.478-.662-1.478-1.477v-24.947c0-6.884 5.6-12.483 12.484-12.483h22.233c6.884 0 12.484 5.6 12.484 12.483v24.947c0 .814-.663 1.477-1.477 1.477h-6.573c-4.142 0-7.5 3.357-7.5 7.5s3.358 7.5 7.5 7.5h6.573c9.085 0 16.477-7.392 16.477-16.477v-24.947c0-15.154-12.329-27.483-27.484-27.483h-3.617v-67.775c9.044-2.795 18.647-4.303 28.596-4.303h6.877c30.992 24.828 60.539 37.251 89.622 37.251s57.705-12.422 86.847-37.251h16.074c6.962 0 13.753.743 20.303 2.144v68.693c-15.402 3.434-26.954 17.2-26.954 33.622 0 18.997 15.456 34.453 34.454 34.453s34.454-15.456 34.454-34.453c0-16.422-11.552-30.188-26.954-33.622v-64.187c36.092 14.148 61.717 49.321 61.717 90.369v62.65c0 3.148-2.562 5.71-5.71 5.71h-316.019c-4.142 0-7.5 3.357-7.5 7.5s3.358 7.5 7.5 7.5h316.02c11.419 0 20.71-9.29 20.71-20.71v-62.65c0-51.295-34.659-94.645-81.788-107.87zm17.024 115.31c0 10.727-8.727 19.453-19.454 19.453s-19.454-8.727-19.454-19.453 8.727-19.454 19.454-19.454 19.454 8.728 19.454 19.454zm-34.206-280.429c0 10.761-7.085 19.896-16.834 22.992 0-.098.005-.196.005-.293v-45.681c9.746 3.097 16.829 12.227 16.829 22.982zm-231.74 0c0-10.575 6.892-19.609 16.42-22.838v45.538c0 .051.002.102.002.153-9.535-3.221-16.422-12.244-16.422-22.853zm31.914 30.691c-.328-2.655-.494-69.321-.494-69.321h168.49s-.166 66.666-.494 69.326c-3.969 32.304-31.55 56.664-64.156 56.664h-39.18c-9.012 0-17.732-1.82-25.922-5.41-20.823-9.119-35.477-28.758-38.244-51.259zm4.966 134.652c-.04-.086-.081-.172-.123-.256l23.928-11.958c8.614-4.309 13.965-12.963 13.965-22.588v-31.118c6.935 1.939 14.103 2.938 21.43 2.938h39.18c7.547 0 14.876-1.061 21.834-3.046v31.23c0 9.628 5.352 18.281 13.963 22.58l21.619 10.812c-.37.487-.688 1.015-.932 1.585-51.678 43.43-99.731 43.373-154.864-.179z"/></g></svg>