<?xml version="1.0" encoding="iso-8859-1"?>
<!-- Generator: Adobe Illustrator 19.0.0, SVG Export Plug-In . SVG Version: 6.00 Build 0)  -->
<svg version="1.1" id="Capa_1" xmlns="http://www.w3.org/2000/svg" xmlns:xlink="http://www.w3.org/1999/xlink" x="0px" y="0px"
	 viewBox="0 0 512 512" style="enable-background:new 0 0 512 512;" xml:space="preserve">
<path style="fill:#0A87EB;" d="M64,315.733V332.8h273.067v-17.067c0-9.429-7.637-17.067-17.067-17.067H81.067
	C71.637,298.667,64,306.304,64,315.733z"/>
<g>
	<path style="fill:#78B9EB;" d="M81.067,281.6v17.067H320V281.6c0.009-31.684-12.578-62.08-34.987-84.48
		c-7.407-7.057-15.727-13.09-24.747-17.92H140.8C103.91,200.09,81.092,239.206,81.067,281.6z"/>
	<path style="fill:#78B9EB;" d="M217.6,42.667c-18.85,0-34.133,15.283-34.133,34.133V128H217.6V93.867
		c0-9.429,7.637-17.067,17.067-17.067h179.2V42.667H217.6z"/>
</g>
<path style="fill:#0A87EB;" d="M413.867,25.6v76.8c0,9.429,7.637,17.067,17.067,17.067H448V8.533h-17.067
	C421.504,8.533,413.867,16.171,413.867,25.6z"/>
<path style="fill:#78B9EB;" d="M157.867,128c-9.412,0.026-17.041,7.654-17.067,17.067V179.2h119.467v-34.133
	c-0.026-9.412-7.654-17.041-17.067-17.067H157.867z"/>
<g>
	<path style="fill:#231F20;" d="M430.933,0c-14.14,0-25.6,11.46-25.6,25.6v8.533H217.6c-23.552,0.026-42.641,19.115-42.667,42.667
		v42.667h-17.067c-14.14,0-25.6,11.46-25.6,25.6v29.397C95.095,197.376,72.482,237.935,72.533,281.6v10.103
		c-10.189,3.601-17.024,13.218-17.067,24.03V332.8c0,4.71,3.823,8.533,8.533,8.533h273.067c4.71,0,8.533-3.823,8.533-8.533v-17.067
		c-0.043-10.812-6.878-20.429-17.067-24.03V281.6c0.051-33.98-13.466-66.577-37.547-90.547c-6.69-6.451-14.14-12.075-22.187-16.734
		v-29.252c0-14.14-11.46-25.6-25.6-25.6h-17.067v-25.6c0-4.71,3.823-8.533,8.533-8.533h170.667V102.4c0,14.14,11.46,25.6,25.6,25.6
		h25.6V0H430.933z M328.533,324.267h-256v-8.533c0-4.71,3.823-8.533,8.533-8.533H320c4.71,0,8.533,3.823,8.533,8.533V324.267z
		 M311.467,281.6v8.533H89.6V281.6c-0.026-38.554,20.335-74.257,53.53-93.867h114.867c7.637,4.198,14.686,9.378,20.966,15.411
		C299.819,223.923,311.518,252.16,311.467,281.6z M243.2,136.533c4.71,0,8.533,3.823,8.533,8.533v25.6h-102.4v-25.6
		c0-4.71,3.823-8.533,8.533-8.533H243.2z M234.667,68.267c-14.14,0-25.6,11.46-25.6,25.6v25.6H192V76.8
		c0-14.14,11.46-25.6,25.6-25.6h187.733v17.067H234.667z M439.467,110.933h-8.533c-4.71,0-8.533-3.823-8.533-8.533V25.6
		c0-4.71,3.823-8.533,8.533-8.533h8.533V110.933z"/>
	<path style="fill:#231F20;" d="M200.533,358.4c-4.71,0-8.533,3.823-8.533,8.533v34.133c0,4.71,3.823,8.533,8.533,8.533
		s8.533-3.823,8.533-8.533v-34.133C209.067,362.223,205.244,358.4,200.533,358.4z"/>
	<path style="fill:#231F20;" d="M200.533,426.667c-4.71,0-8.533,3.823-8.533,8.533v34.133c0,4.71,3.823,8.533,8.533,8.533
		s8.533-3.823,8.533-8.533V435.2C209.067,430.49,205.244,426.667,200.533,426.667z"/>
	<path style="fill:#231F20;" d="M302.933,392.533c-4.71,0-8.533,3.823-8.533,8.533V435.2c0,4.71,3.823,8.533,8.533,8.533
		s8.533-3.823,8.533-8.533v-34.133C311.467,396.356,307.644,392.533,302.933,392.533z"/>
	<path style="fill:#231F20;" d="M234.667,392.533c-4.71,0-8.533,3.823-8.533,8.533V435.2c0,4.71,3.823,8.533,8.533,8.533
		c4.71,0,8.533-3.823,8.533-8.533v-34.133C243.2,396.356,239.377,392.533,234.667,392.533z"/>
	<path style="fill:#231F20;" d="M166.4,392.533c-4.71,0-8.533,3.823-8.533,8.533V435.2c0,4.71,3.823,8.533,8.533,8.533
		s8.533-3.823,8.533-8.533v-34.133C174.933,396.356,171.11,392.533,166.4,392.533z"/>
	<path style="fill:#231F20;" d="M98.133,392.533c-4.71,0-8.533,3.823-8.533,8.533V435.2c0,4.71,3.823,8.533,8.533,8.533
		s8.533-3.823,8.533-8.533v-34.133C106.667,396.356,102.844,392.533,98.133,392.533z"/>
	<path style="fill:#231F20;" d="M132.267,358.4c-4.71,0-8.533,3.823-8.533,8.533v34.133c0,4.71,3.823,8.533,8.533,8.533
		s8.533-3.823,8.533-8.533v-34.133C140.8,362.223,136.977,358.4,132.267,358.4z"/>
	<path style="fill:#231F20;" d="M268.8,358.4c-4.71,0-8.533,3.823-8.533,8.533v34.133c0,4.71,3.823,8.533,8.533,8.533
		s8.533-3.823,8.533-8.533v-34.133C277.333,362.223,273.51,358.4,268.8,358.4z"/>
	<path style="fill:#231F20;" d="M268.8,426.667c-4.71,0-8.533,3.823-8.533,8.533v34.133c0,4.71,3.823,8.533,8.533,8.533
		s8.533-3.823,8.533-8.533V435.2C277.333,430.49,273.51,426.667,268.8,426.667z"/>
	<path style="fill:#231F20;" d="M132.267,426.667c-4.71,0-8.533,3.823-8.533,8.533v34.133c0,4.71,3.823,8.533,8.533,8.533
		s8.533-3.823,8.533-8.533V435.2C140.8,430.49,136.977,426.667,132.267,426.667z"/>
	<path style="fill:#231F20;" d="M166.4,460.8c-4.71,0-8.533,3.823-8.533,8.533v34.133c0,4.71,3.823,8.533,8.533,8.533
		s8.533-3.823,8.533-8.533v-34.133C174.933,464.623,171.11,460.8,166.4,460.8z"/>
	<path style="fill:#231F20;" d="M234.667,460.8c-4.71,0-8.533,3.823-8.533,8.533v34.133c0,4.71,3.823,8.533,8.533,8.533
		c4.71,0,8.533-3.823,8.533-8.533v-34.133C243.2,464.623,239.377,460.8,234.667,460.8z"/>
</g>
<g>
</g>
<g>
</g>
<g>
</g>
<g>
</g>
<g>
</g>
<g>
</g>
<g>
</g>
<g>
</g>
<g>
</g>
<g>
</g>
<g>
</g>
<g>
</g>
<g>
</g>
<g>
</g>
<g>
</g>
</svg>
