<svg id="Capa_1" enable-background="new 0 0 512 512" height="512" viewBox="0 0 512 512" width="512" xmlns="http://www.w3.org/2000/svg"><g><g><path d="m512 481h-30v-30l15-30 15 30z" fill="#07485e"/></g><g><path d="m30 481h-30v-30l15-30 15 30z" fill="#0b799d"/></g><g id="Rested_2_"><g><path d="m45 301c-24.814 0-45-20.186-45-45s20.186-45 45-45 45 20.186 45 45-20.186 45-45 45z" fill="#ffd4c4"/></g><g><g><path d="m512 331h-422v-45c0-41.353 33.633-75 75-75h272c41.367 0 75 33.647 75 75z" fill="#5ecef4"/></g></g><g><g><path d="m0 376v75h512v-75l-256-30z" fill="#0b799d"/></g></g><g><path d="m331 121h-84.258l30-60h-35.742v-30h84.258l-30 60h35.742z" fill="#0b799d"/></g><g><g><path d="m211 181h-84.258l30-60h-35.742v-30h84.258l-30 60h35.742z" fill="#0b799d"/></g></g></g><path d="m325.258 31h-69.258v30h20.742l-20.742 41.484v18.516h75v-30h-35.742z" fill="#07485e"/><path d="m437 211h-181v120h256v-45c0-41.353-33.633-75-75-75z" fill="#4895ff"/><path d="m512 451v-75l-256-30v105z" fill="#07485e"/><path d="m0 301h512v75h-512z" fill="#fff5f5"/><path d="m256 301h256v75h-256z" fill="#e1ebf0"/></g></svg>